<?xml version="1.0" encoding="utf-8"?>
<svg width="490px" height="478px" viewBox="0 0 490 478" version="1.1" xmlns:xlink="http://www.w3.org/1999/xlink" xmlns="http://www.w3.org/2000/svg">
  <defs>
    <filter id="filter_1">
      <feColorMatrix in="SourceGraphic" type="matrix" values="0 0 0 0 1 0 0 0 0 1 0 0 0 0 1 0 0 0 1 0" />
    </filter>
    <path d="M0 27.8276L490 27.8276L490 457.334L0 457.334L0 27.8276Z" id="path_1" />
    <clipPath id="mask_1">
      <use xlink:href="#path_1" />
    </clipPath>
  </defs>
  <g id="Icon">
    <path d="M12.0986 238.951C12.0986 106.982 119.08 0 251.049 0C383.018 0 490 106.982 490 238.951C490 370.919 383.018 477.901 251.049 477.901C119.08 477.901 12.0986 370.919 12.0986 238.951Z" id="Ellipse" fill="#3085E4" fill-rule="evenodd" stroke="none" />
    <path d="M0 27.8276L490 27.8276L490 457.334L0 457.334L0 27.8276Z" id="Background" fill="none" fill-rule="evenodd" stroke="none" />
    <g clip-path="url(#mask_1)">
      <g id="layer1" transform="matrix(-0.6293203 0.77714604 -0.77714604 -0.6293203 459.29126 198.61966)" filter="url(#filter_1)">
        <g id="g1561" transform="matrix(1 -3.7510414E-08 3.7510414E-08 1 -0.00024414062 0)">
          <g id="layer3" transform="matrix(1 -3.7510414E-08 3.7510414E-08 1 0.00012207031 0.00024414062)">
            <path d="M161.961 286.796C140.062 283.904 122.022 278.395 101.31 268.274C93.3283 264.374 79.2994 256.484 79.5012 256.009C79.5996 255.777 89.5122 247.408 101.529 237.411L123.378 219.234L131.456 223.202C140.229 227.511 154.294 229.072 163.386 234.187C172.478 239.302 194.316 291.067 161.961 286.795L161.961 286.796Z" id="path944" fill="#F78C29" fill-opacity="0.998" fill-rule="evenodd" stroke="none" />
            <path d="M295.165 251.471C284.252 249.415 258.371 238.115 240.667 227.676C208.671 208.81 192.852 198.816 177.977 188.07C173.667 184.957 166.454 180.001 161.948 177.058C152.672 170.999 146.524 166.278 137.984 158.658C123.879 146.072 114.218 129.751 114.218 118.509C114.218 114.817 116.777 106.929 119.7 101.61C122.862 95.8572 129.849 89.0675 135.719 86.0438L140.823 83.4148L142.186 85.0876C150.978 95.88 170.09 114.795 181.982 124.475C188.961 130.156 209.263 144.803 218.939 151.138C230.887 158.959 245.578 167.363 263.82 176.812C282.614 186.546 302.371 200.32 314.592 212.209C322.742 220.138 325.379 224.715 325.403 230.969C325.431 238.284 319.427 246.625 311.733 249.961C308.485 251.37 299.144 252.221 295.165 251.471L295.165 251.471Z" id="path946" fill="#F78C29" fill-opacity="0.998" fill-rule="evenodd" stroke="none" />
            <path d="M208.335 135.103C208.914 133.732 212.48 118.346 212.153 104.715C211.826 91.0852 207.739 80.0026 207.739 80.0026C207.739 80.0026 260.232 19.3274 283.569 18.5963C306.906 17.8653 308.158 66.6164 302.265 76.1252C294.479 88.6896 257.445 112.457 245.009 123.617C238.95 129.054 219.573 144.929 216.813 146.348C215.731 146.903 207.524 140.946 206.806 139.723C206.087 138.501 207.249 137.674 208.335 135.103Z" id="path948" fill="#F78C29" fill-opacity="0.998" fill-rule="evenodd" stroke="none" />
            <path d="M35.6238 217.451C5.75022 182.047 -6.83809 132.586 3.64139 91.7908C9.89442 67.4483 24.402 46.8411 45.1453 32.8369C57.7517 24.326 73.9847 18.1318 88.9187 16.1338C98.1899 14.8934 117.98 15.6024 127.003 17.4983C147.018 21.7033 165.694 30.5942 180.411 42.9235C191.62 52.314 205.971 77.0683 208.838 91.8679C210.304 99.4357 209.521 112.877 209.101 118.866C208.241 131.122 205.289 136.254 203.255 136.254C202.32 136.254 192.223 128.854 183.869 122.046C173.823 113.86 157.718 98.1625 147.771 86.8608C138.781 76.6478 136.87 74.9952 130.999 72.3607C113.904 64.6891 88.8545 69.6408 74.4869 83.532C67.4219 90.3628 62.2743 100.172 59.4619 112.162C57.6804 119.758 57.6699 135.015 59.4404 143.237C62.243 156.251 68.271 170.459 74.5189 178.779C76.3718 181.246 77.5463 183.417 77.1577 183.656C76.7725 183.894 73.5536 186.571 70.0045 189.605C60.2338 197.959 50.2626 209.165 43.6744 219.197L40.7954 223.581L35.6238 217.451Z" id="path950" fill="#F78C29" fill-opacity="0.998" fill-rule="evenodd" stroke="none" />
            <path d="M53.1008 258.919C49.3353 257.2 41.846 250.311 40.1518 247.007C36.2419 239.383 38.4142 230.372 47.1802 217.853C57.2108 203.529 70.036 191.366 88.7967 178.388C95.0336 174.073 106.238 166.209 113.694 160.911L127.252 151.28L134.093 157.92C142.043 165.637 150.88 172.711 160.22 178.833L166.839 183.172L156.313 190.958C139.185 203.627 122.405 216.958 98.1903 237.133C84.1792 248.807 73.8839 256.858 71.4757 258.026C66.1872 260.59 57.6702 261.004 53.1008 258.919L53.1008 258.919Z" id="path952" fill="#F78C29" fill-opacity="0.998" fill-rule="evenodd" stroke="none" />
          </g>
        </g>
      </g>
    </g>
  </g>
</svg>